<svg version="1.1" xmlns="http://www.w3.org/2000/svg" xmlns:xlink="http://www.w3.org/1999/xlink" x="0px" y="0px"
	 viewBox="0 0 90.1 36.3" style="enable-background:new 0 0 90.1 36.3;" xml:space="preserve">
<style type="text/css">
	.st0{fill:none; stroke: #E6E4DD ; stroke-width: 2;}
</style>
<g>
	<path class="st0" d="M22.5,14.1c-4.8,1.9-9.1,4.9-12.6,8.5c-1.3,1.4-2.6,3.3-1.8,5c0.5,0.9,1.5,1.5,2.5,1.9c2.3,1,4.8,1.4,7.4,1.7
		c11,1.4,22.2,0.9,33.2-0.4c7.9-0.9,15.8-2.2,23.2-5c3.1-1.1,6.1-2.6,8.3-4.8s3.5-5.5,2.7-8.4c-1.1-3.9-5.5-6.1-9.7-7.3
		c-9-2.6-18.7-2.4-28.1-1.2c-14.9,1.9-29.8,6.1-42.2,14"/>
</g>
</svg>
